<?xml version="1.0" encoding="utf-8"?><svg xmlns="http://www.w3.org/2000/svg" xmlns:xlink="http://www.w3.org/1999/xlink" width="1536" height="695" preserveAspectRatio="xMidYMid" viewBox="0 0 1536 695" style="z-index:1;display:block;background-color:rgb(195, 196, 196);animation-play-state:paused" ><g transform="translate(768,347.5) scale(1,1) translate(-768,-347.5)" style="transform:matrix(1, 0, 0, 1, 0, 0);animation-play-state:paused" ><g transform="translate(1148.1406055658879,-32.640605565887824) scale(100)" opacity="0.4" style="transform:matrix(100, 0, 0, 100, 1148.14, -32.6406);opacity:0.4;animation-play-state:paused" ><path d="M5.214719999999999 0 C5.214719999999999 1.2364799999999998 5.413665147867497 1.697816908728617 4.795425147867497 2.7686399999999995 S3.678183091271382 3.897839993622787 2.60736 4.516079993622787 S1.2364800000000002 5.53728 3.390606113991328e-16 5.53728 S-1.5365369087286156 5.134319993622787 -2.607359999999998 4.516079993622787 S-4.177185147867496 3.839463091271384 -4.795425147867496 2.7686400000000018 S-5.214719999999999 1.2364800000000005 -5.214719999999999 6.386190156449684e-16 S-5.413665147867497 -1.697816908728616 -4.795425147867498 -2.7686399999999987 S-3.678183091271384 -3.8978399936227848 -2.6073600000000017 -4.516079993622785 S-1.236480000000001 -5.53728 -1.0171818341973983e-15 -5.53728 S1.536536908728613 -5.134319993622788 2.607359999999996 -4.516079993622789 S4.177185147867495 -3.8394630912713845 4.795425147867495 -2.7686400000000027 S5.214719999999999 -1.2364800000000011 5.214719999999999 -1.2772380312899369e-15" fill="#0a0a0a" stroke-width="0" transform="matrix(1,0,0,1,0,0)" style="transform:matrix(1, 0, 0, 1, 0, 0);animation-play-state:paused" ></path></g>
<g transform="translate(1224.1687266790655,-108.6687266790654) scale(100)" opacity="0.4" style="transform:matrix(100, 0, 0, 100, 1224.17, -108.669);opacity:0.4;animation-play-state:paused" ><path d="M6.257663999999999 0 C6.257663999999999 1.4837759999999998 6.4963981774409945 2.03738029047434 5.754510177440995 3.322367999999999 S4.41381970952566 4.677407992347344 3.1288320000000005 5.419295992347345 S1.4837760000000002 6.644735999999999 4.068727336789593e-16 6.644735999999999 S-1.843844290474339 6.161183992347345 -3.1288319999999983 5.419295992347346 S-5.012622177440994 4.6073557095256605 -5.754510177440994 3.3223680000000018 S-6.257663999999999 1.4837760000000004 -6.257663999999999 7.663428187739622e-16 S-6.496398177440995 -2.0373802904743386 -5.754510177440996 -3.3223679999999978 S-4.413819709525661 -4.677407992347343 -3.1288320000000023 -5.419295992347343 S-1.4837760000000009 -6.644735999999999 -1.2206182010368778e-15 -6.644735999999999 S1.843844290474336 -6.161183992347346 3.1288319999999956 -5.419295992347347 S5.012622177440993 -4.607355709525661 5.754510177440993 -3.3223680000000027 S6.257663999999999 -1.4837760000000013 6.257663999999999 -1.5326856375479243e-15" fill="#1b1b1b" stroke-width="0" transform="matrix(1,0,0,1,0,0)" style="transform:matrix(1, 0, 0, 1, 0, 0);animation-play-state:paused" ></path></g>
<g transform="translate(1406.6362173506916,-291.1362173506916) scale(100)" opacity="0.4" style="transform:matrix(100, 0, 0, 100, 1406.64, -291.136);opacity:0.4;animation-play-state:paused" ><path d="M8.760729599999998 0 C8.760729599999998 2.0772863999999993 9.094957448417393 2.852332406664076 8.056314248417394 4.651315199999998 S6.179347593335922 6.548371189286281 4.3803648 7.587014389286281 S2.0772863999999998 9.302630399999998 5.696218271505429e-16 9.302630399999998 S-2.5813820066640747 8.62565758928628 -4.380364799999997 7.587014389286282 S-7.01767104841739 6.450297993335924 -8.05631424841739 4.651315200000002 S-8.760729599999998 2.0772864 -8.760729599999998 1.072879946283547e-15 S-9.094957448417393 -2.8523324066640736 -8.056314248417394 -4.651315199999996 S-6.179347593335924 -6.548371189286279 -4.380364800000002 -7.58701438928628 S-2.077286400000001 -9.302630399999998 -1.7088654814516288e-15 -9.302630399999998 S2.5813820066640694 -8.625657589286284 4.380364799999993 -7.587014389286285 S7.017671048417389 -6.4502979933359255 8.05631424841739 -4.6513152000000035 S8.760729599999998 -2.0772864000000015 8.760729599999998 -2.145759892567094e-15" fill="#292929" stroke-width="0" transform="matrix(1,0,0,1,0,0)" style="transform:matrix(1, 0, 0, 1, 0, 0);animation-play-state:paused" ></path></g></g></svg>