<?xml version="1.0" standalone="no"?><svg xmlns="http://www.w3.org/2000/svg" viewBox="0 0 1440 320"><path fill="#273036" fill-opacity="1" d="M0,160L26.7,138.7C53.3,117,107,75,160,80C213.3,85,267,139,320,186.7C373.3,235,427,277,480,298.7C533.3,320,587,320,640,304C693.3,288,747,256,800,245.3C853.3,235,907,245,960,256C1013.3,267,1067,277,1120,277.3C1173.3,277,1227,267,1280,218.7C1333.3,171,1387,85,1413,42.7L1440,0L1440,0L1413.3,0C1386.7,0,1333,0,1280,0C1226.7,0,1173,0,1120,0C1066.7,0,1013,0,960,0C906.7,0,853,0,800,0C746.7,0,693,0,640,0C586.7,0,533,0,480,0C426.7,0,373,0,320,0C266.7,0,213,0,160,0C106.7,0,53,0,27,0L0,0Z"></path></svg>